{"title":"Catch.Me.If.You.Can.2002.1080p.BRrip.x264.AC3.Vie.KSTE.KST","uid":7974617,"size":2046525987,"categoryP":"video","categoryS":"hd___movies","magnet":"?xt=urn:btih:88336a8fc73e5892dbf6d568d73d686748de109b&amp;dn=Catch.Me.If.You.Can.2002.1080p.BRrip.x264.AC3.Vie.KSTE.KST&amp;tr=udp%3A%2F%2Ftracker.openbittorrent.com%3A80&amp;tr=udp%3A%2F%2Fopen.demonii.com%3A1337&amp;tr=udp%3A%2F%2Ftracker.coppersurfer.tk%3A6969&amp;tr=udp%3A%2F%2Fexodus.desync.com%3A6969","seeders":4,"leechers":0,"uploader":"jessketeer","files":-1,"time":1356953884,"description":"Vietnamese hard subtittle!\n\n\nScreens: http://i.imgur.com/LkJqw.jpge\n\n\nFormat                                   : Matroska\nFormat version                           : Version 2\nFile size                                : 1.91 GiB\nDuration                                 : 2h 20mn\nOverall bit rate                         : 1 935 Kbps\nEncoded date                             : UTC 2012-12-30 22:08:26\nWriting application                      : mkvmerge v5.8.0 ('No Sleep / Pillow') built on Sep  2 2012 15:37:04\nWriting library                          : libebml v1.2.3 + libmatroska v1.3.0\n\nVideo\nID                                       : 1\nFormat                                   : AVC\nFormat/Info                              : Advanced Video Codec\nFormat profile                           : &lt;a class=&quot;__cf_email__&quot; href=&quot;/cdn-cgi/l/email-protection&quot; data-cfemail=&quot;c78faea0af878bf3e9f6&quot;&gt;[email&amp;#160;protected]&lt;/a&gt;&lt;script cf-hash='f9e31' type=&quot;text/javascript&quot;&gt;\n/* &lt;![CDATA[ */!function(){try{var t=&quot;currentScript&quot;in document?document.currentScript:function(){for(var t=document.getElementsByTagName(&quot;script&quot;),e=t.length;e--;)if(t[e].getAttribute(&quot;cf-hash&quot;))return t[e]}();if(t&amp;&amp;t.previousSibling){var e,r,n,i,c=t.previousSibling,a=c.getAttribute(&quot;data-cfemail&quot;);if(a){for(e=&quot;&quot;,r=parseInt(a.substr(0,2),16),n=2;a.length-n;n+=2)i=parseInt(a.substr(n,2),16)^r,e+=String.fromCharCode(i);e=document.createTextNode(e),c.parentNode.replaceChild(e,c)}}}catch(u){}}();/* ]]&gt; */&lt;/script&gt;\nFormat settings, CABAC                   : Yes\nFormat settings, ReFrames                : 4 frames\nCodec ID                                 : V_MPEG4/ISO/AVC\nDuration                                 : 2h 20mn\nBit rate                                 : 1 550 Kbps\nWidth                                    : 1 920 pixels\nHeight                                   : 1 080 pixels\nDisplay aspect ratio                     : 16:9\nFrame rate mode                          : Constant\nFrame rate                               : 25.000 fps\nColor space                              : YUV\nChroma subsampling                       : 4:2:0\nBit depth                                : 8 bits\nScan type                                : Progressive\nBits/(Pixel*Frame)                       : 0.030\nStream size                              : 1.49 GiB (78%)\nWriting library                          : x264 core 129 r2230 1cffe9f\n                         \n\nAudio\nID                                       : 2\nFormat                                   : AC-3\nFormat/Info                              : Audio Coding 3\nMode extension                           : CM (complete main)\nFormat settings, Endianness              : Big\nCodec ID                                 : A_AC3\nDuration                                 : 2h 20mn\nBit rate mode                            : Constant\nBit rate                                 : 384 Kbps\nChannel(s)                               : 2 channels\nChannel positions                        : Front: L R\nSampling rate                            : 44.1 KHz\nBit depth                                : 16 bits\nCompression mode                         : Lossy\nStream size                              : 387 MiB (20%)\nDefault                                  : Yes\nForced                                   : No\n","torrent":{"xt":"urn:btih:88336a8fc73e5892dbf6d568d73d686748de109b","amp;dn":"Catch.Me.If.You.Can.2002.1080p.BRrip.x264.AC3.Vie.KSTE.KST","amp;tr":["udp%3A%2F%2Ftracker.openbittorrent.com%3A80","udp%3A%2F%2Fopen.demonii.com%3A1337","udp%3A%2F%2Ftracker.coppersurfer.tk%3A6969","udp%3A%2F%2Fexodus.desync.com%3A6969"],"infoHash":"88336a8fc73e5892dbf6d568d73d686748de109b","infoHashBuffer":{"type":"Buffer","data":[136,51,106,143,199,62,88,146,219,246,213,104,215,61,104,103,72,222,16,155]},"announce":[],"urlList":[]}}